<?xml version="1.0" standalone="no"?>
<!DOCTYPE svg PUBLIC "-//W3C//DTD SVG 20010904//EN"
 "http://www.w3.org/TR/2001/REC-SVG-20010904/DTD/svg10.dtd">
<svg version="1.0" xmlns="http://www.w3.org/2000/svg"
 width="1024.000000pt" height="1024.000000pt" viewBox="0 0 1024.000000 1024.000000"
 preserveAspectRatio="xMidYMid meet">
<metadata>
Created by potrace 1.14, written by Peter Selinger 2001-2017
</metadata>
<g transform="translate(0.000000,1024.000000) scale(0.100000,-0.100000)"
fill="#000000" stroke="none">
<path d="M4770 10234 c-19 -2 -91 -9 -160 -14 -422 -36 -906 -146 -1343 -305
-1014 -367 -1902 -1062 -2488 -1945 -322 -486 -561 -1052 -680 -1612 -73 -347
-94 -547 -94 -923 0 -398 15 -588 71 -875 13 -69 26 -138 30 -155 3 -16 12
-55 20 -85 21 -78 24 -92 30 -120 24 -120 178 -559 238 -680 7 -14 41 -83 76
-155 57 -118 103 -206 184 -349 82 -147 286 -438 420 -601 216 -262 496 -537
747 -734 57 -45 109 -86 116 -91 48 -39 194 -140 203 -140 5 0 10 -4 10 -8 0
-5 12 -15 28 -23 15 -8 29 -17 32 -20 10 -12 219 -138 325 -197 260 -144 612
-298 890 -390 119 -39 317 -97 365 -106 25 -5 66 -15 85 -20 50 -14 66 -18
260 -55 560 -109 1230 -120 1795 -30 69 11 141 22 160 25 19 2 85 16 145 29
61 14 121 27 135 30 65 15 266 68 275 73 6 4 15 7 20 8 31 5 132 38 143 46 6
6 12 8 12 5 0 -9 349 121 408 152 9 5 42 19 72 31 67 27 462 228 470 239 3 4
13 10 22 14 52 19 460 289 512 339 7 7 24 20 36 28 140 92 484 410 689 635
202 223 453 572 594 825 110 197 307 617 322 684 1 6 8 25 15 41 49 118 175
567 195 695 3 19 14 86 25 149 52 304 75 785 51 1086 -56 707 -262 1371 -615
1983 -491 854 -1247 1550 -2161 1992 -558 270 -1115 430 -1770 506 -122 14
-824 28 -915 18z m-655 -1773 c401 -59 811 -234 1064 -453 254 -220 417 -496
488 -828 28 -133 25 -449 -5 -590 -59 -267 -161 -476 -342 -700 -117 -145
-327 -358 -485 -493 -286 -244 -441 -401 -482 -487 -35 -72 -46 -138 -48 -282
-1 -118 -5 -151 -18 -172 -38 -57 -13 -55 -644 -57 l-582 -1 -33 27 c-62 52
-61 47 -55 284 8 330 52 496 192 736 121 207 264 362 525 570 229 182 486 436
528 521 87 173 82 347 -14 485 -25 36 -85 85 -157 126 -171 99 -483 121 -688
47 -105 -37 -233 -106 -309 -164 -106 -83 -107 -83 -183 -87 -111 -7 -118 -1
-408 332 -139 160 -275 315 -302 345 -80 88 -94 140 -56 216 20 42 41 60 229
199 164 120 399 234 667 324 215 72 342 98 608 125 86 9 387 -5 510 -23z
m3541 8 c57 -15 108 -62 124 -115 10 -32 4 -384 -29 -1795 -23 -965 -41 -1805
-41 -1866 l0 -113 -36 -40 c-22 -25 -51 -44 -75 -50 -25 -7 -236 -10 -607 -8
l-568 3 -37 25 c-20 13 -46 42 -58 64 -22 39 -22 40 -60 1650 -21 886 -39
1730 -41 1876 -3 297 0 314 61 356 l36 24 643 0 c447 0 657 -3 688 -11z m-32
-4751 c23 -7 59 -30 82 -53 l40 -41 12 -509 c7 -281 15 -543 18 -583 l6 -72
-49 -50 -50 -50 -658 0 -659 0 -46 48 c-32 34 -50 63 -58 95 -8 32 -12 209
-12 588 l0 543 50 48 50 48 616 0 c459 0 627 -3 658 -12z m-3364 -68 c81 -41
76 -6 87 -630 11 -611 14 -586 -50 -634 l-33 -25 -623 -1 c-691 -1 -643 -6
-698 67 l-28 36 -3 536 c-3 603 -3 599 66 646 l37 25 603 0 c581 0 604 -1 642
-20z"/>
</g>
</svg>
